<svg width="28" height="29" viewBox="0 0 28 29" fill="none" xmlns="http://www.w3.org/2000/svg">
<path d="M18.6667 9.60742H11.6667C11.0479 9.60742 10.4544 9.85326 10.0168 10.2908C9.57921 10.7284 9.33337 11.3219 9.33337 11.9408C9.33337 12.5596 9.57921 13.1531 10.0168 13.5907C10.4544 14.0283 11.0479 14.2741 11.6667 14.2741H16.3334C16.9522 14.2741 17.5457 14.5199 17.9833 14.9575C18.4209 15.3951 18.6667 15.9886 18.6667 16.6074C18.6667 17.2263 18.4209 17.8198 17.9833 18.2573C17.5457 18.6949 16.9522 18.9408 16.3334 18.9408H9.33337M14 21.2741V7.27409M25.6667 14.2741C25.6667 20.7174 20.4434 25.9408 14 25.9408C7.55672 25.9408 2.33337 20.7174 2.33337 14.2741C2.33337 7.83077 7.55672 2.60742 14 2.60742C20.4434 2.60742 25.6667 7.83077 25.6667 14.2741Z" stroke="#1B1B1B" stroke-width="3" stroke-linecap="round" stroke-linejoin="round"/>
</svg>
