<svg width="40" height="40" viewBox="0 0 40 40" fill="none" xmlns="http://www.w3.org/2000/svg">
<path d="M3.33331 3.33325L16.6666 16.6666M36.6666 3.33325L23.3333 16.6666M36.6666 14.9999C36.6666 19.6023 29.2047 23.3333 20 23.3333M36.6666 14.9999C36.6666 10.3975 29.2047 6.66659 20 6.66659C10.7952 6.66659 3.33331 10.3975 3.33331 14.9999M36.6666 14.9999V28.3333C36.6666 30.5434 34.9107 32.663 31.7851 34.2258C28.6595 35.7886 24.4203 36.6666 20 36.6666M20 23.3333C10.7952 23.3333 3.33331 19.6023 3.33331 14.9999M20 23.3333V36.6666M3.33331 14.9999V28.3333C3.33331 30.5434 5.08926 32.663 8.21487 34.2258C11.3405 35.7886 15.5797 36.6666 20 36.6666M11.6666 22.3333V35.4999M28.3333 22.3333V35.4999" stroke="#1B1B1B" stroke-width="2" stroke-linecap="round" stroke-linejoin="round"/>
</svg>
