<svg width="28" height="29" viewBox="0 0 28 29" fill="none" xmlns="http://www.w3.org/2000/svg">
<path d="M17.5 24.7742V15.4409C17.5 15.1315 17.3771 14.8347 17.1583 14.6159C16.9395 14.3971 16.6428 14.2742 16.3333 14.2742H11.6667C11.3572 14.2742 11.0605 14.3971 10.8417 14.6159C10.6229 14.8347 10.5 15.1315 10.5 15.4409V24.7742M3.5 11.9409C3.49992 11.6015 3.57389 11.2661 3.71675 10.9582C3.85962 10.6503 4.06793 10.3773 4.32717 10.1582L12.4938 3.15938C12.915 2.80344 13.4486 2.60815 14 2.60815C14.5514 2.60815 15.085 2.80344 15.5062 3.15938L23.6728 10.1582C23.9321 10.3773 24.1404 10.6503 24.2832 10.9582C24.4261 11.2661 24.5001 11.6015 24.5 11.9409V22.4409C24.5 23.0597 24.2542 23.6532 23.8166 24.0908C23.379 24.5284 22.7855 24.7742 22.1667 24.7742H5.83333C5.21449 24.7742 4.621 24.5284 4.18342 24.0908C3.74583 23.6532 3.5 23.0597 3.5 22.4409V11.9409Z" stroke="white" stroke-width="3" stroke-linecap="round" stroke-linejoin="round"/>
</svg>
