<svg width="60" height="60" viewBox="0 0 60 60" fill="none" xmlns="http://www.w3.org/2000/svg">
<path d="M6.63428 6.5L12.6 0H47.4L53.3657 6.5H6.63428Z" fill="#1B1B1B"/>
<path d="M5.14285 8.5H17.0743L13.0972 38.5L5.14285 8.5Z" fill="#1B1B1B"/>
<path d="M14.5884 38.5H22.5427L18.0684 13L14.5884 38.5Z" fill="#1B1B1B"/>
<path d="M24.0341 38.5H24.5313L28.5086 8.5H19.0629L24.0341 38.5Z" fill="#1B1B1B"/>
<path d="M26.0227 38.5H33.977L29.5027 13L26.0227 38.5Z" fill="#1B1B1B"/>
<path d="M35.4684 38.5H35.9656L39.9429 8.5H30.4971L35.4684 38.5Z" fill="#1B1B1B"/>
<path d="M37.457 38.5H45.4113L40.937 13L37.457 38.5Z" fill="#1B1B1B"/>
<path d="M51.8741 60L47.3998 40.5H12.5998L8.6227 60H51.8741Z" fill="#1B1B1B"/>
<path d="M54.8571 8.5H41.9314L46.9029 38.5L54.8571 8.5Z" fill="#1B1B1B"/>
</svg>
