<svg width="500" height="500" viewBox="0 0 500 500" fill="none" xmlns="http://www.w3.org/2000/svg">
<rect width="500" height="500" fill="#E85D04"/>
<path d="M128.725 45.8735L159.625 12H339.875L370.775 45.8735H128.725Z" fill="#1B1B1B"/>
<path d="M121 56.2961H182.8L162.2 212.635L121 56.2961Z" fill="#1B1B1B"/>
<path d="M169.924 212.635H211.124L187.949 79.747L169.924 212.635Z" fill="#1B1B1B"/>
<path d="M218.849 212.635H221.424L242.025 56.2961H193.1L218.849 212.635Z" fill="#1B1B1B"/>
<path d="M229.149 212.635H270.349L247.174 79.747L229.149 212.635Z" fill="#1B1B1B"/>
<path d="M278.074 212.635H280.649L301.25 56.2961H252.325L278.074 212.635Z" fill="#1B1B1B"/>
<path d="M288.374 212.635H329.574L306.399 79.747L288.374 212.635Z" fill="#1B1B1B"/>
<path d="M363.049 324.679L339.874 223.058H159.624L139.024 324.679H363.049Z" fill="#1B1B1B"/>
<path d="M378.5 56.2961H311.55L337.3 212.635L378.5 56.2961Z" fill="#1B1B1B"/>
<path d="M100 375.499C100 374.966 102.187 374.539 106.56 374.219C110.933 373.899 115.253 373.739 119.52 373.739H126.4C128.107 373.739 129.493 374.379 130.56 375.659C131.627 376.939 132.213 378.593 132.32 380.619L133.92 426.699L126.72 436.139L139.52 483.819L136.48 487.339H127.04L118.88 437.579L110.72 438.379L107.36 487.339H100V375.499ZM122.08 425.739C122.72 425.739 123.04 425.419 123.04 424.779V384.939L120.64 382.539L109.6 383.659L110.08 426.379L122.08 425.739ZM164.534 484.139H151.094V373.739H161.174L164.534 484.139ZM211.062 382.859H199.543V484.139H186.103V381.739L175.063 379.819L176.663 373.739H211.062V382.859ZM223.125 487.339V373.739H234.645L246.325 443.179H247.605L258.485 373.739H267.765L271.445 487.339H260.885V401.739H259.765L248.725 462.219L243.445 463.339L232.085 393.099H231.445V487.339H223.125ZM297.934 487.339H286.094V388.779L283.214 381.099V373.739H299.374L297.934 487.339ZM314.211 487.339L311.331 483.819L316.771 473.259L335.651 385.259L313.891 380.139V373.739H345.091L350.051 378.699L327.331 473.899L348.771 476.939L350.051 487.339H314.211ZM397.853 487.339H363.613V373.739H397.853V383.659L377.853 382.699V419.019L397.853 422.699V430.379L375.133 429.419V475.339L397.853 474.059V487.339Z" fill="#1B1B1B"/>
</svg>
