<svg width="236" height="74" viewBox="0 0 236 74" fill="none" xmlns="http://www.w3.org/2000/svg">
<path d="M70.8952 7.68237C70.8952 7.39689 72.0657 7.1685 74.4066 6.99721C76.7476 6.82592 79.06 6.74028 81.3439 6.74028H85.0266C85.9402 6.74028 86.6824 7.08286 87.2534 7.76802C87.8244 8.45318 88.1384 9.33818 88.1955 10.423L89.0519 35.0888L85.1979 40.1419L92.0495 65.6641L90.4223 67.5483H85.3692L81.0013 40.9127L76.6334 41.3409L74.8349 67.5483H70.8952V7.68237ZM82.7142 34.575C83.0568 34.575 83.2281 34.4037 83.2281 34.0611V12.7354L81.9434 11.4508L76.0339 12.0503L76.2908 34.9175L82.7142 34.575ZM105.439 65.8354H98.2447V6.74028H103.64L105.439 65.8354ZM130.345 11.622H124.179V65.8354H116.984V11.0225L111.075 9.99479L111.931 6.74028H130.345V11.622ZM136.802 67.5483V6.74028H142.968L149.22 43.9103H149.906L155.729 6.74028H160.697L162.667 67.5483H157.014V21.7282H156.415L150.505 54.102L147.679 54.7016L141.598 17.1033H141.255V67.5483H136.802ZM176.846 67.5483H170.508V14.7909L168.966 10.68V6.74028H177.616L176.846 67.5483ZM185.559 67.5483L184.017 65.6641L186.929 60.0116L197.035 12.9067L185.387 10.1661V6.74028H202.088L204.743 9.39528L192.582 60.3541L204.058 61.9814L204.743 67.5483H185.559ZM230.33 67.5483H212.002V6.74028H230.33V12.0503L219.625 11.5364V30.9779L230.33 32.9477V37.0587L218.169 36.5448V61.125L230.33 60.4398V67.5483Z" fill="#1B1B1B"/>
<path d="M7.30843 13.2592L13.7033 6.66138H51.0065L57.4013 13.2592H7.30843Z" fill="#1B1B1B"/>
<path d="M5.70972 15.2893H18.4994L14.2363 45.7409L5.70972 15.2893Z" fill="#1B1B1B"/>
<path d="M15.8347 45.7409H24.3612L19.565 19.8571L15.8347 45.7409Z" fill="#1B1B1B"/>
<path d="M25.9599 45.7409H26.4928L30.7562 15.2893H20.631L25.9599 45.7409Z" fill="#1B1B1B"/>
<path d="M28.0915 45.7409H36.6179L31.8218 19.8571L28.0915 45.7409Z" fill="#1B1B1B"/>
<path d="M38.2167 45.7409H38.7496L43.0129 15.2893H32.8878L38.2167 45.7409Z" fill="#1B1B1B"/>
<path d="M40.3483 45.7409H48.8747L44.0786 19.8571L40.3483 45.7409Z" fill="#1B1B1B"/>
<path d="M55.8025 67.5646L51.0063 47.7711H13.7031L9.43988 67.5646H55.8025Z" fill="#1B1B1B"/>
<path d="M59 15.2893H45.1446L50.4736 45.7409L59 15.2893Z" fill="#1B1B1B"/>
</svg>
